<svg xmlns="http://www.w3.org/2000/svg" width="512" height="210" viewBox="0 0 512 210">
  <path d="M93.55046,27.0725c-6.00019,7.09625-15.60486,12.6875-25.20517,11.89125-1.20004-9.59,3.50376-19.78375,9.00028-26.075C83.35014,5.59563,93.84828.39375,102.35803,0c.99419,9.9925-2.90374,19.77937-8.80319,27.0725M102.25292,40.8625c-13.90116-.80062-25.8008,7.8925-32.401,7.8925-6.70094,0-16.8049-7.49438-27.80671-7.29312-14.29972.19688-27.60086,8.29062-34.9062,21.175-14.99609,25.7775-3.89793,63.94062,10.60325,84.91875,7.10387,10.395,15.60486,21.78313,26.80375,21.385,10.59887-.4025,14.80338-6.895,27.60524-6.895,12.9026,0,16.59905,6.895,27.80232,6.69374,11.60182-.20126,18.90278-10.39062,26.00227-20.78125,8.10244-11.78625,11.40474-23.275,11.6062-23.87438-.20146-.20125-22.40654-8.69312-22.60801-34.26938-.19709-21.38063,17.50565-31.57,18.30714-32.16938-10.00323-14.7875-25.6081-16.38437-31.00826-16.7825M182.56346,11.88687v155.75h24.20222v-53.24375h33.5047c30.60533,0,52.10529-20.9825,52.10529-51.35375s-21.1058-51.15249-51.3082-51.15249h-58.5084.00439ZM206.76568,32.26999h27.90305c21.00504,0,33.0054,11.18687,33.0054,30.87s-12.00038,30.97062-33.10175,30.97062h-27.8067v-61.84062ZM336.57993,168.84c15.20631,0,29.30457-7.69562,35.70768-19.87999h.49928v18.68125h22.40215v-77.525c0-22.47875-18.00056-36.96875-45.70652-36.96875-25.70005,0-44.70358,14.68688-45.40432,34.86875h21.80212c1.80007-9.59,10.70398-15.88125,22.90584-15.88125,14.80337,0,23.10292,6.89063,23.10292,19.57813v8.5925l-30.20679,1.79375c-28.10452,1.70187-43.30208,13.19062-43.30208,33.17124,0,20.18187,15.70121,33.56938,38.20411,33.56938l-.00438-.00002ZM343.08379,150.35563c-12.90259,0-21.10139-6.195-21.10139-15.68437,0-9.79125,7.90098-15.4875,23.00217-16.38437l26.90448-1.6975v8.79375c0,14.58188-12.40331,24.97251-28.80526,24.97249ZM425.08926,210c23.60657,0,34.70471-8.99063,44.40576-36.26875l42.50498-119.08312h-24.60516l-28.50309,92.01063h-.49928l-28.50309-92.01063h-25.30152l41.00273,113.39124-2.1986,6.895c-3.70085,11.69-9.70102,16.1875-20.405,16.1875-1.8964,0-5.59725-.20563-7.09512-.4025v18.68125c1.39712.39812,7.39732.59938,9.19739.59938Z"/>
</svg>