<svg xmlns="http://www.w3.org/2000/svg" xmlns:xlink="http://www.w3.org/1999/xlink" width="512" height="512" viewBox="0 0 512 512">
  <defs>
    <linearGradient id="linear-gradient" x1="267.41025" y1="561.69376" x2="385.5641" y2="561.69376" gradientTransform="translate(0 -462.7)" gradientUnits="userSpaceOnUse">
      <stop offset="0" stop-color="#25a9e0"/>
      <stop offset=".3" stop-color="#24a6de"/>
      <stop offset=".5" stop-color="#239ed5"/>
      <stop offset=".7" stop-color="#208fc8"/>
      <stop offset=".9" stop-color="#1c7bb4"/>
      <stop offset="1" stop-color="#17629d"/>
    </linearGradient>
    <linearGradient id="linear-gradient1" x1="313.18155" y1="462.7" x2="319.56825" y2="462.7" gradientTransform="translate(0 -462.7)" gradientUnits="userSpaceOnUse">
      <stop offset="0" stop-color="#25a9e0"/>
      <stop offset=".4" stop-color="#25a6de"/>
      <stop offset=".6" stop-color="#239ed8"/>
      <stop offset=".8" stop-color="#208fce"/>
      <stop offset="1" stop-color="#1c7bbf"/>
      <stop offset="1" stop-color="#1b75bb"/>
    </linearGradient>
    <linearGradient id="linear-gradient2" x1="279.1192" y1="683.2376" x2="123.70964" y2="683.2376" gradientTransform="translate(0 -462.7)" gradientUnits="userSpaceOnUse">
      <stop offset="0" stop-color="#25a9e0"/>
      <stop offset=".3" stop-color="#24a6de"/>
      <stop offset=".5" stop-color="#239ed5"/>
      <stop offset=".7" stop-color="#208fc8"/>
      <stop offset=".9" stop-color="#1c7bb4"/>
      <stop offset="1" stop-color="#17629d"/>
    </linearGradient>
  </defs>
  <path style="fill:#17629d" d="M356.82397,50.0291h-207.56756l5.32225-35.12682,20.22453-13.83784h153.28065l18.09564,6.38669,10.64449,42.57796Z"/>
  <path style="fill:url(#linear-gradient)" d="M304.66597,145.82951c-6.3867,18.09563-11.70894,38.32016-36.19126,51.09355l69.18919-25.54677c8.51558-4.25779,13.83783-15.96674,18.09564-25.54677,0,0,15.96674-43.64241,28.74013-75.57588,12.77336-36.19128-17.03121-69.1892-55.35138-69.1892h-7.45115c11.70894,1.06445,35.12683,5.32225,23.41787,37.25571"/>
  <path style="fill:url(#linear-gradient1)" d="M313.18155,0h6.3867-6.3867Z"/>
  <path style="fill:#17629d" d="M229.09008,350.20374h43.64241l-25.54677,89.41373c-18.09564,47.90021-61.73803,71.31809-105.38045,72.38252-1.06445,0-17.03119-48.96464-17.03119-48.96464h13.83783c28.74012,0,48.96466-2.12891,61.73803-36.19128l28.74013-75.57586"/>
  <path style="fill:url(#linear-gradient2)" d="M275.92584,361.91266l-28.74013,78.76924c10.64449-26.61123-4.25779-50.02911-10.64449-67.06028L127.96743,79.83368C119.45183,50.0291,121.58073-6.3867,193.96327,1.06445c0,0-43.64241-5.32225-25.54677,48.96465l108.57379,289.53013c4.25779,8.5156,4.25779,12.77338,0,22.35343h-1.06445Z"/>
</svg>