<svg xmlns="http://www.w3.org/2000/svg" id="Layer_1" version="1.1" viewBox="0 0 186 48"><defs><linearGradient id="linear-gradient" x1="176.8" x2="185.2" y1="31.7" y2="31.7" gradientTransform="matrix(1 0 0 -1 0 50)" gradientUnits="userSpaceOnUse"><stop offset="0" stop-color="#25a9e0"/><stop offset=".3" stop-color="#24a6de"/><stop offset=".5" stop-color="#239ed5"/><stop offset=".7" stop-color="#208fc8"/><stop offset=".9" stop-color="#1c7bb4"/><stop offset="1" stop-color="#17629d"/></linearGradient><linearGradient id="linear-gradient1" x1="180.1" x2="180.5" y1="38.7" y2="38.7" gradientTransform="matrix(1 0 0 -1 0 50)" gradientUnits="userSpaceOnUse"><stop offset="0" stop-color="#25a9e0"/><stop offset=".4" stop-color="#25a6de"/><stop offset=".6" stop-color="#239ed8"/><stop offset=".8" stop-color="#208fce"/><stop offset="1" stop-color="#1c7bbf"/><stop offset="1" stop-color="#1b75bb"/></linearGradient><linearGradient id="linear-gradient2" x1="177.6" x2="166.5" y1="23" y2="23" gradientTransform="matrix(1 0 0 -1 0 50)" gradientUnits="userSpaceOnUse"><stop offset="0" stop-color="#25a9e0"/><stop offset=".3" stop-color="#24a6de"/><stop offset=".5" stop-color="#239ed5"/><stop offset=".7" stop-color="#208fc8"/><stop offset=".9" stop-color="#1c7bb4"/><stop offset="1" stop-color="#17629d"/></linearGradient><linearGradient id="linear-gradient3" x1="12.4" x2="12.4" y1="-1.4" y2="43.1" gradientTransform="matrix(1 0 0 -1 0 50)" gradientUnits="userSpaceOnUse"><stop offset="0" stop-color="#25a9e0"/><stop offset="1" stop-color="#17629d"/></linearGradient><linearGradient id="linear-gradient4" x1="32.7" x2="32.7" y1="-1.4" y2="43.1" gradientTransform="matrix(1 0 0 -1 0 50)" gradientUnits="userSpaceOnUse"><stop offset="0" stop-color="#25a9e0"/><stop offset="1" stop-color="#17629d"/></linearGradient><linearGradient id="linear-gradient5" x1="54" x2="54" y1="-1.4" y2="43.1" gradientTransform="matrix(1 0 0 -1 0 50)" gradientUnits="userSpaceOnUse"><stop offset="0" stop-color="#25a9e0"/><stop offset="1" stop-color="#17629d"/></linearGradient><linearGradient id="linear-gradient6" x1="79.9" x2="79.9" y1="-1.4" y2="43.1" gradientTransform="matrix(1 0 0 -1 0 50)" gradientUnits="userSpaceOnUse"><stop offset="0" stop-color="#25a9e0"/><stop offset="1" stop-color="#17629d"/></linearGradient><linearGradient id="linear-gradient7" x1="106.4" x2="106.4" y1="-1.4" y2="43.1" gradientTransform="matrix(1 0 0 -1 0 50)" gradientUnits="userSpaceOnUse"><stop offset="0" stop-color="#25a9e0"/><stop offset="1" stop-color="#17629d"/></linearGradient><linearGradient id="linear-gradient8" x1="3.2" x2="3.2" y1="-1.4" y2="43.1" gradientTransform="matrix(1 0 0 -1 0 50)" gradientUnits="userSpaceOnUse"><stop offset="0" stop-color="#25a9e0"/><stop offset="1" stop-color="#17629d"/></linearGradient><style>.st9{fill:#17629d}</style></defs><path d="M142.1 23.9c0 8.6-3.3 12.9-10 12.9s-5.4-1-7.1-3v14.1h-2.5V11.5h2.5v2.7c1.7-2.1 4.1-3.2 7.1-3.2 6.6 0 10 4.3 10 12.9Zm-2.5 0c0-3.1-.5-5.5-1.3-7.2-1.2-2.1-3.2-3.2-6.1-3.2s-3.6.6-5 1.8-2 2.8-2 4.7v7.8c0 1.9.6 3.5 2 4.7s3 1.8 5 1.8c2.9 0 5-1.1 6.1-3.2.8-1.6 1.3-4 1.3-7.1Zm26.2 12.4-2.3.6-1-2.5c-2.2 1.8-4.7 2.6-7.6 2.6s-4.6-.6-6.3-1.8c-1.8-1.4-2.6-3.2-2.6-5.7s.8-4.2 2.6-5.5c1.6-1.2 3.5-1.8 5.9-1.8h3.7c2 0 3.4-.5 4.2-1.3v-2.3c0-1.4-.6-2.6-1.9-3.5-1.2-.8-2.5-1.3-4-1.3-3.7 0-6 1.4-6.8 4.2l-2.4-.7c1.5-4 4.5-5.9 9.3-5.9s4.1.6 5.6 1.9c1.8 1.4 2.6 3.1 2.6 5.2v15.6l1 2.4Zm-3.4-5v-7.5c-1 .6-2.1.8-3.6.8h-4.3c-1.7 0-3 .4-4.1 1.2-1.2.8-1.8 2.1-1.8 3.7s.6 3 1.9 3.9c1.1.8 2.6 1.2 4.3 1.2 2.9 0 5.4-1.1 7.5-3.3Zm20.8-16.5h-14.9l.4-2.5 1.5-1h11l1.3.5.7 3Z" class="st9"/><path d="M179.4 21.7c-.5 1.3-.8 2.8-2.6 3.7l5-1.8c.6-.3 1-1.1 1.3-1.8 0 0 1.1-3.1 2-5.4.9-2.6-1.2-5-4-5h-.6c.8 0 2.5.4 1.7 2.7" style="fill:url(#linear-gradient)"/><path d="M180.1 11.3h.5-.5Z" style="fill:url(#linear-gradient1)"/><path d="M174.1 36.3h3.1l-1.8 6.4c-1.3 3.4-4.4 5.1-7.6 5.2l-1.2-3.5h1c2 0 3.5-.2 4.4-2.6l2-5.4" class="st9"/><path d="m177.4 37.1-2 5.6c.7-1.9-.3-3.6-.7-4.8l-7.8-21c-.6-2.1-.5-6.2 4.7-5.6 0 0-3.1-.4-1.8 3.5l7.8 20.8c.3.6.3.9 0 1.6Z" style="fill:url(#linear-gradient2)"/><path d="M24.1 5.3V0c-3.7 0-6.5.9-8.1 2.7-1.7 1.8-2.5 4.4-2.6 8.1H.6v25.8H6V15.4h7.4v21.1h5.2V15.4h4.8v-4.8h-4.8c0-2 .5-3.5 1.1-4.2.8-.7 2.3-1.1 4.4-1.1Z" style="fill:url(#linear-gradient3)"/><path d="M38.7 15.5h-3.6v14.2c0 1 .2 1.5.6 1.5H38v5.3h-2.3c-2.1 0-3.8-.8-4.9-2.6-.6-1-.9-2.4-.9-4.2V15.5h-3.1v-4.8h3.1V3.8h5.2v6.9h3.6v4.8Z" style="fill:url(#linear-gradient4)"/><path d="M64.5 36.6h-5.4V22.2c0-2.2-.3-3.8-.9-4.7-.8-1.2-2.3-1.8-4.4-1.8s-3.5.7-4.3 2.1c-.3.5-.5 1-.6 1.7v17.2h-5.4V0h5.4v11.4c1.6-.7 3.2-1.1 5-1.1 4.1 0 7.1 1.4 9 4.2 1.2 1.8 1.8 4.3 1.8 7.7v14.3Z" style="fill:url(#linear-gradient5)"/><path d="M90.7 25.8H74.5c.2 1.7.5 3 1 3.7 1 1.6 2.8 2.4 5.3 2.4s4-.8 5.4-2.5l4.3 3.2c-2.7 3-5.9 4.4-9.7 4.4s-7.8-1.6-9.9-4.7c-1.3-2-2-4.8-2-8.6s.6-6.6 2-8.6c2-3 5.2-4.5 9.4-4.5s6.7 1.6 8.8 4.6c.8 1.2 1.4 3 1.5 5.1.2.7.2 2.6 0 5.4Zm-5.4-5.1c-.2-1.3-.4-2.1-.6-2.5-1-1.5-2.4-2.2-4.3-2.2-3.2 0-5.1 1.6-5.7 4.7h10.7Z" style="fill:url(#linear-gradient6)"/><path d="M116.9 36.6h-5.4V21.9c0-2.1-.3-3.7-.9-4.5-.8-1.2-2.3-1.8-4.4-1.8s-3.6.7-4.4 2.1c-.3.5-.5.9-.6 1.6v17.3h-5.4V11.1h5.4v.8c1.6-.7 3.3-1.1 5-1.1 4.2 0 7.2 1.3 9 3.8 1.2 1.8 1.8 4.2 1.8 7.4v14.6Z" style="fill:url(#linear-gradient7)"/><path d="M.6 3.8h5.2V9H.6V3.8Z" style="fill:url(#linear-gradient8)"/></svg>