<svg xmlns="http://www.w3.org/2000/svg" width="512" height="204" viewBox="0 0 512 204">
  <path style="fill:#5f6368" d="M242.15898,99.68765v59.57734h-18.91733V12.09858h50.14406c12.08883-.25779,23.77899,4.32829,32.46785,12.73722,8.79589,7.90588,13.7391,19.23206,13.55473,31.05731.25818,11.89492-4.69305,23.30902-13.55473,31.24793-8.76822,8.36158-19.5993,12.54661-32.46785,12.52543,0,0-31.22674.02118-31.22673.02118ZM242.15898,30.21958v51.38943h31.69691c7.03154.21179,13.8089-2.55423,18.70131-7.61607,9.93183-9.65196,10.15869-25.52776.50673-35.45959-.00372-.00383-.00743-.00766-.01115-.01148-.16944-.16943-.32191-.34311-.49558-.49559-4.82723-5.16164-11.63691-8.00428-18.70131-7.80669,0,0-31.69692,0-31.69691,0ZM362.99102,55.29163c13.97834,0,25.00426,3.73179,33.0905,11.19537,8.08624,7.46358,12.11455,17.71435,12.11455,30.70997v62.07226h-18.07863v-13.97833h-.81329c-7.82786,11.51306-18.2523,17.26112-31.24791,17.26112-11.08949,0-20.37446-3.2828-27.83805-9.86954-7.25485-6.11524-11.36742-15.17436-11.19536-24.66117,0-10.42021,3.94782-18.70131,11.81804-24.85601,7.87023-6.1547,18.37937-9.24264,31.54865-9.24264,11.21656,0,20.48036,2.05863,27.72791,6.1547v-4.33329c.04366-6.46683-2.82289-12.61054-7.80669-16.73164-5.00122-4.50615-11.51675-6.96233-18.24807-6.87904-10.55151,0-18.91735,4.46036-25.07626,13.35989l-16.63845-10.48798c9.13673-13.1481,22.69149-19.70945,40.64305-19.70945v-.00423ZM338.52048,128.44489c-.02408,4.88054,2.30695,9.47316,6.26058,12.33482,4.18169,3.28811,9.37129,5.02995,14.68996,4.93054,7.98098-.01923,15.63006-3.19582,21.27672-8.83599,6.26058-5.89631,9.39514-12.80076,9.39514-20.7557-5.90054-4.7018-14.11388-7.06117-24.66539-7.06117-7.67962,0-14.09271,1.84684-19.21809,5.55745-5.16775,3.76991-7.73893,8.34464-7.73893,13.83006ZM512,58.57442l-63.11424,145.0866h-19.51884l23.42005-50.76676-41.51988-94.31985h20.5439l30.00681,72.33998h.40665l29.18505-72.33998s20.5905,0,20.5905,0Z"/>
  <g>
    <path style="fill:#4285f4" d="M165.74414,86.81911c0-5.76924-.47441-11.5173-1.46138-17.19758h-79.73577v32.55257h45.65831c-1.88277,10.5102-7.98133,19.79347-16.87989,25.69471v21.1454h27.26198c15.95647-14.68996,25.15675-36.45803,25.15675-62.1951Z"/>
    <path style="fill:#34a853" d="M84.547,169.45223c22.81856,0,42.03241-7.48475,56.04038-20.41683l-27.26198-21.1454c-7.59065,5.14657-17.35007,8.08625-28.77841,8.08625-22.04763,0-40.77436-14.86786-47.46278-34.89499H9.00896v21.78926c14.34688,28.56037,43.57669,46.5854,75.53804,46.58172Z"/>
    <path style="fill:#fbbc04" d="M37.08422,101.08125c-3.53842-10.49715-3.53842-21.8648,0-32.36195v-21.79349H9.00896c-12.01194,23.89147-12.01194,52.05746,0,75.94893l28.07526-21.79349Z"/>
    <path style="fill:#ea4335" d="M84.547,33.82429c12.05301-.19516,23.69941,4.35691,32.42549,12.67369l24.14862-24.12745C125.81269,8.00187,105.54107.10935,84.547.34407c-31.95883.00522-61.18435,18.0276-75.53805,46.58173l28.07526,21.79349c6.69265-20.03561,25.41514-34.895,47.46278-34.89499Z"/>
  </g>
</svg>