<svg xmlns="http://www.w3.org/2000/svg" width="511.99995" height="438.86" viewBox="0 0 511.99995 438.86">
  <path style="fill:#4376bb" d="M121.5991,0h290.74473c20.11442,0,37.48594,17.37154,37.48594,39.31454v19.20012c0,26.51446-35.65739,26.51446-35.65739,0v-10.05721c0-6.40004-5.48574-11.88579-11.88578-11.88579H109.71331c-6.40004,0-11.88579,4.57146-11.88579,11.88579v10.05721c0,26.51446-33.82879,25.60016-33.82879,0v-19.20012C63.99873,17.37154,80.45598,0,100.57039,0h21.02871ZM255.0857,438.86h188.34407c42.97172,0,43.88599-45.71458,39.31453-68.57188-2.74287-15.54297-28.34303-14.62865-31.08593,0v17.37156c0,8.22864-6.40005,14.62865-14.62865,14.62865H74.97023c-8.22863,0-14.62867-6.40005-14.62867-14.62865v-17.37156c-2.74288-14.62865-28.34304-15.54297-31.08592,0-4.57146,22.85729-3.65717,68.57188,39.31454,68.57188h186.51551Z"/>
  <path style="fill:#010101;" d="M371.20071,201.14417h30.17162c13.71437-1.82859,24.68588-13.71437,24.68588-28.34305,0-15.54297-12.8001-28.34305-28.34303-28.34305h-60.34324v149.94381h76.80051c16.45724,0,29.25734-13.71437,29.25734-29.25734,0-16.45724-13.71438-29.25734-29.25734-29.25734h-42.0574c-9.14292,0-16.45724-7.31433-16.45724-16.45724-.91428-10.05721,6.40005-18.28583,15.5429-18.2858ZM442.51546,215.77284c20.11442,9.14292,33.8288,29.25734,33.8288,51.20034,0,32.00021-27.42875,57.60037-61.25755,57.60037h-95.08631c-9.14292,0-16.45724-6.40005-16.45724-15.54297v-179.20116c0-9.14292,7.31433-15.54296,15.54297-15.54296h78.62907c32.91449,0,60.34324,27.42875,60.34324,60.34325.91428,15.54297-5.48574,31.08591-15.54297,41.14312Z"/>
  <path style="fill:#010101;" d="M288.91448,307.20199c.9143,10.05719-6.40005,20.11442-16.45724,21.0287-10.05721.91428-20.11442-6.40005-21.0287-16.45724l-15.54297-143.5438-54.8575,139.88662c-.9143,1.82859-2.74287,3.65718-3.65716,4.57146s-1.82859,1.82859-3.65716,2.74287c-6.40005,4.57146-9.14292,4.57146-10.97151,4.57146s-4.57146-.91428-6.40005-.91428c-.9143-.91428-1.82859-.91428-2.74287-1.82859l-.9143-.91428h-.9143l-.9143-.91428-.9143-.91428c-2.74287-1.82859-3.65716-2.74287-3.65716-3.65718l-54.8575-140.80091-17.37154,141.71519c-.9143,10.05719-10.05721,18.28583-21.02871,16.45724-10.05721-.91428-18.28583-10.05719-16.45725-21.0287l18.28583-169.14396c0-1.82858.91429-3.65716.91429-5.48575.91429-1.82858.91429-3.65716,2.74288-5.48575,4.57146-9.14292,13.71437-14.62867,23.77158-16.45725h5.48575c1.82858,0,3.65716,0,5.48575.9143,10.05721,2.74288,18.28583,9.14292,21.943,19.20012l46.62888,119.77221,46.62888-119.77221c3.65716-10.05721,11.88578-16.45725,21.943-19.20013,1.82859,0,3.65716-.9143,5.48575-.9143h5.48575c10.05721,1.82858,19.20013,7.31434,23.77159,16.45725l2.74287,5.48575c.9143,1.82858.9143,3.65716.9143,5.48575,0,0,20.11442,169.14397,20.11441,169.14397Z"/>
</svg>