<svg  xmlns="http://www.w3.org/2000/svg" width="511.99995" height="438.8571" viewBox="0 0 511.99995 438.8571">
  <path style="fill:#ec2227" d="M357.48567,412.3428c0-14.62856,11.88571-26.5143,26.5143-26.5143s26.5143,11.88571,26.5143,26.5143-11.88571,26.5143-26.5143,26.5143-26.5143-11.88571-26.5143-26.5143M293.48567,412.3428c0-14.62856,11.88571-26.5143,26.5143-26.5143s26.5143,11.88571,26.5143,26.5143-11.88571,26.5143-26.5143,26.5143-26.5143-11.88571-26.5143-26.5143M229.48568,412.3428c0-14.62856,11.88571-26.5143,26.51428-26.5143s26.51428,11.88571,26.51428,26.5143-11.88571,26.5143-26.51428,26.5143-26.51428-11.88571-26.51428-26.5143M164.5714,412.3428c0-14.62856,11.88571-26.5143,26.51428-26.5143s26.51428,11.88571,26.51428,26.5143-11.88571,26.5143-26.51428,26.5143c-13.71428,0-26.51428-11.88571-26.51428-26.5143M100.5714,412.3428c0-14.62856,11.88571-26.5143,26.51428-26.5143s26.51428,11.88571,26.51428,26.5143-11.88571,26.5143-26.51428,26.5143-26.51428-11.88571-26.51428-26.5143M422.39997,219.42855c0-14.62857,11.88571-26.51428,26.5143-26.51428s26.51426,11.88571,26.51426,26.51428-11.88571,26.51428-26.5143,26.51428-26.5143-11.88571-26.5143-26.51428M357.48567,347.42854c0-14.62856,11.88571-26.5143,26.5143-26.5143s26.5143,11.88571,26.5143,26.5143-11.88571,26.5143-26.5143,26.5143c-14.62856.91427-26.5143-10.97143-26.5143-26.5143M293.48567,347.42854c0-14.62856,11.88571-26.5143,26.5143-26.5143s26.5143,11.88571,26.5143,26.5143-11.88571,26.5143-26.5143,26.5143c-14.62856.91427-26.5143-10.97143-26.5143-26.5143M229.48568,347.42854c0-14.62856,11.88571-26.5143,26.51428-26.5143s26.51428,11.88571,26.51428,26.5143-11.88571,26.5143-26.51428,26.5143c-14.62857.91427-26.51428-10.97143-26.51428-26.5143M164.57141,347.42854c0-14.62856,11.88571-26.5143,26.51428-26.5143s26.51428,11.88571,26.51428,26.5143-11.88571,26.5143-26.51428,26.5143c-13.71428.91427-26.51428-10.97143-26.51428-26.5143M100.57142,347.42854c0-14.62856,11.88571-26.5143,26.51428-26.5143s26.51428,11.88571,26.51428,26.5143-11.88571,26.5143-26.51428,26.5143c-14.62857.91427-26.51428-10.97143-26.51428-26.5143M357.48567,283.42854c0-14.62857,11.88571-26.51428,26.5143-26.51428s26.5143,11.88571,26.5143,26.51428-11.88571,26.5143-26.5143,26.5143c-14.62856.91427-26.5143-11.88571-26.5143-26.51428M293.48567,283.42856c0-14.62857,11.88571-26.51428,26.5143-26.51428s26.5143,11.88571,26.5143,26.51428-11.88571,26.51428-26.5143,26.51428c-14.62856.91427-26.5143-11.88571-26.5143-26.51428M229.48568,283.42856c0-14.62857,11.88571-26.51428,26.51428-26.51428s26.51428,11.88571,26.51428,26.51428-11.88571,26.51428-26.51428,26.51428c-14.62857.91427-26.51428-11.88571-26.51428-26.51428M164.57141,283.42854c0-14.62857,11.88571-26.51428,26.51428-26.51428s26.51428,11.88571,26.51428,26.51428-11.88571,26.5143-26.51428,26.5143c-13.71428.91427-26.51428-11.88571-26.51428-26.51428M100.57142,283.42856c0-14.62857,11.88571-26.51428,26.51428-26.51428s26.51428,11.88571,26.51428,26.51428-11.88571,26.51428-26.51428,26.51428c-14.62856.91427-26.51428-11.88574-26.51428-26.5143M357.48567,219.42855c0-14.62857,11.88571-26.51428,26.5143-26.51428s26.5143,11.88571,26.5143,26.51428-11.88571,26.51428-26.5143,26.51428-26.5143-11.88571-26.5143-26.51428M293.48567,219.42855c0-14.62857,11.88571-26.51428,26.5143-26.51428s26.5143,11.88571,26.5143,26.51428-11.88571,26.51428-26.5143,26.51428-26.5143-11.88571-26.5143-26.51428M229.48568,219.42855c0-14.62857,11.88571-26.51428,26.51428-26.51428s26.51428,11.88571,26.51428,26.51428-11.88571,26.51428-26.51428,26.51428-26.51428-11.88571-26.51428-26.51428M164.57141,219.42855c0-14.62857,11.88571-26.51428,26.51428-26.51428s26.51428,11.88571,26.51428,26.51428-11.88571,26.51428-26.51428,26.51428c-13.71428,0-26.51428-11.88571-26.51428-26.51428M100.57142,219.42855c0-14.62857,11.88571-26.51428,26.51428-26.51428s26.51428,11.88571,26.51428,26.51428-11.88571,26.51428-26.51428,26.51428-26.51428-11.88571-26.51428-26.51428M36.57143,219.42855c0-14.62857,11.88571-26.51428,26.51428-26.51428s26.51428,11.88571,26.51428,26.51428-11.88571,26.51428-26.51428,26.51428-26.51428-11.88571-26.51428-26.51428M357.48567,155.42856c0-14.62857,11.88571-26.51428,26.5143-26.51428s26.5143,11.88571,26.5143,26.51428-11.88571,26.51428-26.5143,26.51428-26.5143-11.88571-26.5143-26.51428M293.48567,155.42856c0-14.62857,11.88571-26.51428,26.5143-26.51428s26.5143,11.88571,26.5143,26.51428-11.88571,26.51428-26.5143,26.51428-26.5143-11.88571-26.5143-26.51428M229.48568,155.42856c0-14.62857,11.88571-26.51428,26.51428-26.51428s26.51428,11.88571,26.51428,26.51428-11.88571,26.51428-26.51428,26.51428-26.51428-11.88571-26.51428-26.51428M164.57141,155.42856c0-14.62857,11.88571-26.51428,26.51428-26.51428s26.51428,11.88571,26.51428,26.51428-11.88571,26.51428-26.51428,26.51428c-13.71428,0-26.51428-11.88571-26.51428-26.51428M100.57142,155.42856c0-14.62857,11.88571-27.42857,27.42857-27.42857,14.62857,0,26.51428,11.88571,26.51428,26.51428s-11.88571,26.51428-26.51428,26.51428c-15.54285.91429-27.42857-10.97143-27.42857-25.59999M293.48567,91.42856c0-15.54285,11.88571-27.42857,26.5143-27.42857s27.42857,11.88571,27.42857,27.42857c0,14.62857-11.88571,26.51428-26.5143,26.51428-15.54286,0-27.42857-11.88571-27.42857-26.51428M229.48568,91.42856c0-15.54285,11.88571-27.42857,26.51428-27.42857s26.51428,11.88571,26.51428,26.51428-11.88571,26.51428-26.51428,26.51428c-14.62857.91429-26.51428-10.97143-26.51428-25.6M164.57141,91.42856c0-15.54285,12.8-27.42857,27.42857-27.42857s26.51428,11.88571,26.51428,26.51428-11.88571,26.51428-26.51428,26.51428c-14.62857.91429-27.42857-10.97143-27.42857-25.6M229.4857,26.51428c0-14.62856,11.88571-26.51428,26.51428-26.51428s26.51428,11.88571,26.51428,26.51428-11.88571,26.51428-26.51428,26.51428-26.51428-11.88571-26.51428-26.51428"/>
</svg>