<svg xmlns="http://www.w3.org/2000/svg" width="512" height="182" viewBox="0 0 512 182">
  <g>
    <path style="fill:#939598" d="M210.63666,172.8982c-1.77018,0-3.20518-1.43501-3.20518-3.20518v-104.04756c0-20.87906,16.98974-37.86881,37.86879-37.86881l30.72517.04914c20.81101.0378,37.7403,17.00487,37.7403,37.81589v22.14526c0,20.87906-16.98598,37.86881-37.86502,37.86881h-43.40985c-1.77018-.00177-3.20376-1.43821-3.20198-3.20838.00176-1.76768,1.4343-3.20022,3.20198-3.20198h43.40985c17.34883,0,31.45843-14.10962,31.45843-31.45844v-22.14904c0-17.28079-14.06049-31.3715-31.34504-31.40552l-30.71761-.04536c-17.34126,0-31.45465,14.1134-31.45465,31.45844v104.04754c0,1.76889-1.43629,3.20518-3.20518,3.20518ZM346.69827,126.12065c-1.77018,0-3.20518-1.43501-3.20518-3.20518V45.19351c-.00833-6.08214-4.93568-11.01119-11.01783-11.0216h-13.331c-1.76914-.06077-3.15403-1.5442-3.09327-3.31334.05785-1.68382,1.40946-3.03541,3.09327-3.09325h13.32722c9.61866.01457,17.41193,7.80952,17.42442,17.42819v77.72195c0,1.77269-1.4325,3.20518-3.20141,3.20518h.00378Z"/>
    <path id="path2364" style="fill:#32bcad" d="M343.8408,18.92838l-6.04374-6.04752c-1.49755-1.49932-1.49755-3.92833,0-5.42765l6.03996-6.03996c1.50038-1.50194,3.93424-1.5032,5.43617-.00283.00095.00094.00187.00188.00283.00283l6.03996,6.03996c1.50055,1.50054,1.50055,3.93089,0,5.43143l-6.04751,6.04374c-1.49931,1.49756-3.92832,1.49756-5.42764,0"/>
    <path style="fill:#939598" d="M441.76526,75.5256c-3.59448,0-6.97355-1.39849-9.5135-3.94222l-30.91038-30.91038c-4.19815-4.22059-9.91043-6.58608-15.86339-6.56912h-13.21384c-1.77018,0-3.20518-1.43501-3.20518-3.20518s1.43501-3.20519,3.20518-3.20519h13.21384c7.65257-.02047,14.99529,3.02142,20.39146,8.44763l30.91038,30.91038c1.33422,1.33045,3.10313,2.06371,4.9892,2.06371,1.87852,0,3.6512-.73326,4.98165-2.06371l30.797-30.79699c5.39615-5.42621,12.73887-8.46809,20.39146-8.44763h10.74569c1.77018,0,3.20521,1.43501,3.20521,3.20518s-1.43504,3.20519-3.20521,3.20519h-10.74569c-5.95163-.01595-11.66236,2.34946-15.85961,6.56912l-30.797,30.79699c-2.51843,2.53266-5.9456,3.95225-9.51727,3.94222ZM385.47796,125.4403h-13.21384c-1.77018.00177-3.20663-1.43181-3.20838-3.20198s1.43181-3.20662,3.20198-3.20838h13.22024c5.95304.01738,11.66547-2.34817,15.86339-6.56912l30.91038-30.91038c2.53995-2.53996,5.91902-3.93845,9.5135-3.93845s6.97355,1.39849,9.51727,3.93845l30.797,30.79698c4.19636,4.22141,9.90738,6.58828,15.85964,6.5729h10.74569c1.76914-.06073,3.2525,1.3242,3.31323,3.09333.06073,1.76914-1.32419,3.25253-3.09333,3.31326-.07325.00251-.14661.00251-.21991,0h-10.74569c-7.65202.02147-14.99468-3.01903-20.39146-8.44384l-30.797-30.80077c-1.31952-1.32611-3.11469-2.06923-4.98542-2.06371-1.88229,0-3.6512.73326-4.98165,2.06371l-30.91416,30.91416c-5.39678,5.42482-12.73944,8.46532-20.39149,8.44384Z"/>
    <path id="path2376" style="fill:#32bcad" d="M131.84883,141.98404c-6.59088.01835-12.91532-2.60016-17.56426-7.27214l-25.35422-25.35422c-1.78024-1.7878-4.88337-1.78024-6.66361,0l-25.44871,25.44871c-4.64864,4.66966-10.97145,7.2867-17.56048,7.26836h-4.99676l32.11232,32.11609c10.02942,10.0303,26.29104,10.031,36.32132.00157.00053-.00052.00105-.00105.00158-.00157l32.20304-32.20682s-3.05021,0-3.05021.00001Z"/>
    <path id="path2380" style="fill:#32bcad" d="M39.25754,52.29557c6.58903-.01835,12.91185,2.59869,17.56048,7.26836l25.44871,25.45249c1.84042,1.83933,4.82319,1.83933,6.66361,0l25.35422-25.36178c4.64956-4.6706,10.97392-7.28772,17.56426-7.26836h3.05399l-32.20682-32.20304c-10.02942-10.03029-26.29103-10.031-36.32132-.00158-.00053.00053-.00106.00106-.00159.00158l-32.11232,32.10854h4.99676v.00378Z"/>
    <path id="path2384" style="fill:#32bcad" d="M161.54214,79.0256l-19.46546-19.46545c-.43779.18047-.9061.27541-1.3796.2797h-8.84827c-4.57343,0-9.05616,1.85583-12.28402,5.09125l-25.36178,25.358c-2.27995,2.2836-5.37568,3.56487-8.6026,3.56047-3.11825,0-6.2365-1.18682-8.60638-3.56047l-25.45248-25.44494c-3.26438-3.24863-7.67864-5.07816-12.28402-5.09126h-10.88553c-.44838-.00797-.89156-.09763-1.30778-.26458l-19.54104,19.54104c-10.03029,10.02942-10.031,26.29103-.00158,36.32132.00053.00053.00106.00106.00158.00159l19.54104,19.53726c.41627-.16679.85941-.25645,1.30778-.26458h10.88175c4.57344,0,9.05238-1.85206,12.28402-5.09126l25.44872-25.44871c4.59989-4.59611,12.62042-4.59611,17.21653,0l25.35422,25.35801c3.26522,3.2469,7.67926,5.07498,12.28402,5.08748h8.85205c.47351.0042.94184.09914,1.3796.2797l19.46546-19.46167c10.0303-10.02942,10.031-26.29104.00157-36.32132-.00052-.00053-.00105-.00105-.00157-.00158"/>
    <path id="path2388" style="fill:#939598" d="M237.05297,160.84852c-1.43629,0-3.10691.34395-4.76241.72571v6.33855c1.14903.41955,2.45681.61988,3.70788.61988,3.1825,0,4.68683-1.06966,4.68683-3.87041,0-2.63444-1.23218-3.81749-3.62851-3.81749M231.22091,172.62231v-12.53727h.86933l.0945.54428c1.47408-.34395,3.50377-.8013,4.95897-.8013,1.18304,0,2.30562.18143,3.25054.94492,1.0961.89201,1.43629,2.3283,1.43629,3.88931,0,1.6366-.54427,3.1825-2.03347,4.03294-1.03563.58207-2.43413.82019-3.68899.82019-1.29408-.00681-2.58019-.2029-3.81749-.58207v3.68899h-1.06967Z"/>
    <path id="path2392" style="fill:#939598" d="M249.81701,160.81073c-3.18252,0-4.5999.99784-4.5999,3.7986,0,2.70626,1.3985,3.92332,4.5999,3.92332,3.15982,0,4.57343-.98272,4.57343-3.7797,0-2.70626-1.3985-3.94222-4.57343-3.94222M253.90287,168.53265c-1.05453.7635-2.47192.98272-4.08586.98272-1.65552,0-3.07291-.23812-4.10853-.98272-1.16414-.81641-1.6366-2.16198-1.6366-3.85152,0-1.67441.47246-3.0351,1.6366-3.87041,1.03565-.7446,2.45681-.98272,4.10853-.98272,1.63283,0,3.03133.23812,4.08586.98272,1.18306.83532,1.6366,2.19601,1.6366,3.85152,0,1.68952-.47246,3.05399-1.6366,3.87041"/>
    <path id="path2396" style="fill:#939598" d="M268.95742,169.25836l-3.54537-7.61231h-.07558l-3.48487,7.61231h-.96381l-3.7797-9.17711h1.18306l3.14093,7.70681h.07558l3.41307-7.70681h.98273l3.50757,7.70681h.07558l3.0691-7.70681h1.14148l-3.7797,9.17711h-.96006Z"/>
    <path id="path2400" style="fill:#939598" d="M280.55354,160.79183c-2.94816,0-3.946,1.30778-4.12744,3.19763h8.25108c-.09072-2.08639-1.16414-3.19763-4.12366-3.19763M280.5157,169.51537c-1.76135,0-2.91036-.25702-3.8175-1.02052-1.06964-.92602-1.43628-2.26781-1.43628-3.81371,0-1.47408.49135-3.0351,1.71221-3.92332,1.01673-.71058,2.26781-.9298,3.57937-.9298,1.17925,0,2.54372.12851,3.66631.89201,1.33044.88823,1.58747,2.45681,1.58747,4.23326h-9.41522c.03781,1.88985.65387,3.56426,4.21436,3.56426,1.68952,0,3.26943-.27593,4.74351-.52916v.96005c-1.527.27593-3.21652.56696-4.83423.56696"/>
    <path id="path2404" style="fill:#939598" d="M288.8802,169.25836v-9.17711h.86934l.0945.54806c1.94277-.49136,2.85366-.8013,4.5621-.8013h.12472v1.02052h-.25324c-1.43628,0-2.30562.19654-4.32397.72571v7.68413h-1.07345Z"/>
    <path id="path2408" style="fill:#939598" d="M300.75981,160.79183c-2.94438,0-3.94222,1.30778-4.12744,3.19763h8.25108c-.09072-2.08639-1.16414-3.19763-4.12366-3.19763M300.72198,169.51537c-1.76135,0-2.90658-.25702-3.8175-1.02052-1.06964-.92602-1.43628-2.26781-1.43628-3.81371,0-1.47408.49135-3.0351,1.71221-3.92332,1.01673-.71058,2.26781-.9298,3.57937-.9298,1.17925,0,2.54372.12851,3.66631.89201,1.33044.88823,1.58747,2.45681,1.58747,4.23326h-9.41522c.03781,1.88985.65387,3.56426,4.21436,3.56426,1.68952,0,3.26943-.27593,4.74351-.52916v.96005c-1.527.27593-3.21652.56696-4.83423.56696"/>
    <path id="path2412" style="fill:#939598" d="M317.75709,161.43059c-1.19128-.41773-2.44553-.62742-3.7079-.61988-3.17874,0-4.68682,1.07344-4.68682,3.87041,0,2.65335,1.23217,3.81749,3.62851,3.81749,1.43628,0,3.11068-.34773,4.76243-.71058v-6.35745h.00378ZM317.95742,169.25835l-.09072-.54428c-1.47408.34395-3.50757.8013-4.96276.8013-1.17925,0-2.30562-.16252-3.25054-.94492-1.09234-.89201-1.43628-2.3283-1.43628-3.88931,0-1.6366.54427-3.1825,2.03349-4.01782,1.03565-.5972,2.43412-.83154,3.70412-.83154,1.27375,0,2.50973.21544,3.80236.57829v-4.19547h1.06964v13.04374s-.86934,0-.86931,0Z"/>
    <path id="path2416" style="fill:#939598" d="M334.54652,160.84852c-1.43628,0-3.10691.34395-4.76243.72571v6.32344c1.16792.43467,2.45681.63499,3.71167.63499,3.17493,0,4.68682-1.06966,4.68682-3.87041,0-2.63444-1.23597-3.81749-3.63606-3.81749M337.29058,168.69519c-1.03565.58207-2.43412.82019-3.68898.82019-1.36069,0-2.72139-.23812-4.10475-.69168l-.05669.43845h-.72571v-13.04752h1.07342v4.3769c1.47408-.32505,3.45087-.7635,4.84934-.7635,1.18306,0,2.30562.18143,3.25054.94492,1.09612.89201,1.43628,2.3283,1.43628,3.88931,0,1.6366-.54427,3.1825-2.03349,4.03294"/>
    <path id="path2420" style="fill:#939598" d="M340.749,172.78482v-.99784c.52916.05292,1.02051.09071,1.36069.09071,1.33044,0,2.12798-.38176,2.87258-1.88985l.34774-.72948-4.80021-9.17711h1.23975l4.10475,7.92225h.07558l3.90442-7.92225h1.21706l-5.15928,10.30724c-.94492,1.87095-1.96543,2.48705-3.83639,2.48705-.41577,0-.86934-.03779-1.32289-.09071"/>
    <path id="path2424" style="fill:#939598" d="M365.8462,164.02347h-3.56048v3.22031h3.57937c2.45303,0,3.37904-.27213,3.37904-1.61772,0-1.43629-1.26997-1.59881-3.39796-1.59881M365.1923,158.81126h-2.90658v3.26945h2.92549c2.41901,0,3.37904-.28726,3.37904-1.65173,0-1.4514-1.21706-1.61772-3.39796-1.61772M370.71821,168.38902c-1.31156.83532-2.89147.86933-5.78293.86933h-5.43141v-12.44655h5.30669c2.49081,0,4.01783.03779,5.29158.8013.90712.54428,1.26997,1.3796,1.26997,2.47192,0,1.304-.54427,2.18089-1.96543,2.75918v.0756c1.60261.36285,2.63822,1.17927,2.63822,2.94438,0,1.19817-.43843,1.97678-1.32667,2.52484"/>
    <path id="path2428" style="fill:#939598" d="M382.91535,165.40684c-1.09984-.09531-2.20328-.14323-3.30724-.14362-1.87096,0-2.52861.37796-2.52861,1.23218,0,.8013.54804,1.23974,1.98057,1.23974,1.20195,0,2.63444-.27213,3.85528-.54806v-1.78024ZM383.45962,169.26214l-.07558-.54806c-1.56102.38176-3.37904.8013-4.97787.8013-.98273,0-2.03349-.12851-2.77808-.67279-.69168-.49136-1.02051-1.29265-1.02051-2.21869,0-1.03563.45357-1.99946,1.54588-2.48705.96381-.45356,2.2527-.49136,3.43573-.49136.96381,0,2.2527.05292,3.32612.12851v-.1663c0-1.43629-.94492-1.90875-3.52645-1.90875-1.12821.00346-2.2557.05769-3.37904.16252v-1.85206c1.28508-.10583,2.74405-.18143,3.94222-.18143,1.5988,0,3.25054.12851,4.27105.85422,1.05076.7446,1.25486,1.78402,1.25486,3.14471v5.43143h-2.01835v.00379Z"/>
    <path id="path2432" style="fill:#939598" d="M397.45963,169.25836v-5.06857c0-1.67063-.85798-2.26781-2.3812-2.26781-1.12634,0-2.54372.28726-3.74189.57829v6.7581h-2.56642v-9.17711h2.09018l.09072.58207c1.61772-.41577,3.41685-.83154,4.90604-.83154,1.12634,0,2.27159.15875,3.14471.94492.72571.65389.99784,1.56101.99784,2.86879v5.61286h-2.54372.00375Z"/>
    <path id="path2436" style="fill:#939598" d="M407.2377,169.51537c-1.17925,0-2.47192-.16252-3.41307-.96383-1.12634-.90713-1.45519-2.34341-1.45519-3.89309,0-1.44762.47246-3.03131,1.87096-3.91954,1.14525-.74839,2.56264-.90713,4.03294-.90713,1.05831,0,2.09018.07182,3.23543.17765v1.96545c-.97223-.09869-1.94836-.15419-2.92549-.1663-2.43412,0-3.57937.7635-3.57937,2.87256,0,1.98056.8542,2.83477,2.85366,2.83477,1.16036,0,2.52484-.21922,3.85528-.47246v1.88985c-1.43628.29104-3.00108.58207-4.47516.58207"/>
    <path id="path2440" style="fill:#939598" d="M419.27604,161.75566c-2.43412,0-3.50757.7635-3.50757,2.85368s1.05831,2.9784,3.50757,2.9784c2.41901,0,3.46976-.7446,3.46976-2.83477s-1.03187-2.9973-3.46976-2.9973M423.67561,168.55156c-1.12634.7635-2.60045.96383-4.39958.96383-1.83316,0-3.30724-.21922-4.41469-.96383-1.26997-.83532-1.72733-2.2149-1.72733-3.87041s.45357-3.05399,1.72733-3.88931c1.10745-.7446,2.58153-.96383,4.41469-.96383,1.81805,0,3.27321.21922,4.39958.96383,1.26997.83532,1.70844,2.2338,1.70844,3.87041,0,1.65551-.45357,3.05399-1.70844,3.88931"/>
    <path id="path2444" style="fill:#939598" d="M440.17399,169.51537c-1.54211,0-3.21274-.25324-4.4676-1.29265-1.48919-1.23596-1.94654-3.14093-1.94654-5.19709,0-1.83316.58207-4.01404,2.52861-5.28401,1.50433-.98272,3.37904-1.18304,5.26889-1.18304,1.37958,0,2.79697.09071,4.34288.21922v2.2338c-1.40807-.12002-2.82015-.18685-4.23327-.20033-3.54537,0-5.05345,1.34557-5.05345,4.21437,0,2.92927,1.3985,4.23326,4.01783,4.23326,1.70463,0,3.6134-.34017,5.54105-.7446v2.21869c-1.92765.38176-3.946.7824-5.99837.7824"/>
    <path id="path2448" style="fill:#939598" d="M453.70154,161.46462c-2.12798,0-2.94816.7635-3.10691,2.16198h6.17604c-.07558-1.48921-.94492-2.16198-3.0691-2.16198M453.31983,169.51538c-1.51189,0-2.87258-.18143-3.89309-1.02052-1.08478-.90713-1.4703-2.26781-1.4703-3.83261,0-1.39848.45357-2.96329,1.72733-3.87041,1.12634-.79751,2.56264-.96383,4.01783-.96383,1.30778,0,2.85366.14741,3.97625.92602,1.47408,1.03942,1.60261,2.63824,1.61772,4.52807h-8.71976c.05292,1.39848.79751,2.30562,3.37904,2.30562,1.5988,0,3.37904-.23434,4.88715-.47246v1.79914c-1.76135.29104-3.68898.60097-5.52213.60097"/>
    <path id="path2452" style="fill:#939598" d="M470.69508,169.25836v-5.06857c0-1.67063-.85043-2.26781-2.3812-2.26781-1.12634,0-2.53995.28726-3.74189.57829v6.7581h-2.56264v-9.17711h2.09018l.09072.58207c1.61772-.41577,3.41685-.83154,4.90604-.83154,1.12634,0,2.27159.15875,3.14471.94492.72571.65389.99784,1.56101.99784,2.86879v5.61286s-2.54372,0-2.54375.00001Z"/>
    <path id="path2456" style="fill:#939598" d="M480.53362,169.51537c-1.23597,0-2.36231-.34773-2.98219-1.30778-.45357-.65767-.67279-1.5459-.67279-2.78186v-3.43575h-1.85204v-1.90497h1.85204l.27591-2.78186h2.26781v2.78186h3.61715v1.90497h-3.6134v2.94816c0,.7068.05292,1.304.25324,1.73866.27213.61988.86934.858,1.67063.858.60096,0,1.32667-.0945,1.83693-.18143v1.83316c-.87234.19172-1.76063.30181-2.65336.32884"/>
    <path id="path2460" style="fill:#939598" d="M485.54174,169.25836v-9.17711h2.09015l.09072.58207c1.68955-.47246,2.94061-.83154,4.54318-.83154.0718,0,.18144,0,.32505.01512v2.18089c-.29102-.01512-.63499-.01512-.89198-.01512-1.21455.00471-2.42362.16346-3.59826.47246v6.77322s-2.55886,0-2.55886.00001Z"/>
    <path id="path2464" style="fill:#939598" d="M501.90404,165.40684c-1.09984-.09533-2.20325-.14325-3.30724-.14362-1.87093,0-2.52484.37796-2.52484,1.23218,0,.8013.54427,1.23974,1.98057,1.23974,1.19817,0,2.63447-.27213,3.85531-.54806v-1.77646l-.00381-.00378ZM502.4483,169.26214l-.0718-.54806c-1.56099.38176-3.37904.8013-4.97787.8013-.9827,0-2.03726-.12851-2.78183-.67279-.68793-.49136-1.01673-1.29265-1.01673-2.21869,0-1.03563.45355-1.99946,1.54588-2.48705.96384-.45356,2.25267-.49136,3.43573-.49136.96004,0,2.25267.05292,3.32615.12851v-.1663c0-1.43629-.94492-1.90875-3.53026-1.90875-.99787,0-2.2149.05669-3.37904.16252v-1.85206c1.28889-.10583,2.74405-.18143,3.94603-.18143,1.59883,0,3.25054.12851,4.27108.85422,1.05076.7446,1.25106,1.78402,1.25106,3.14471v5.43143h-2.01835l-.00006.00379Z"/>
    <path id="path2466" style="fill:#939598" d="M507.76258,156.21462h2.56261v13.04374h-2.56261v-13.04374Z"/>
  </g>
</svg>